<?xml version="1.0" encoding="iso-8859-1"?>
<!-- Generator: Adobe Illustrator 19.0.0, SVG Export Plug-In . SVG Version: 6.00 Build 0)  -->
<svg version="1.1" id="Layer_1" xmlns="http://www.w3.org/2000/svg" xmlns:xlink="http://www.w3.org/1999/xlink" x="0px" y="0px"
	 viewBox="0 0 492.308 492.308" style="enable-background:new 0 0 492.308 492.308;" xml:space="preserve">
<g>
	<g>
		<path d="M261.308,44.986v110.418h180.163V44.986H261.308z M421.779,135.712H281V64.678h140.779V135.712z"/>
	</g>
</g>
<g>
	<g>
		<path d="M261.308,184.798v110.418h180.163V184.798H261.308z M421.779,275.524H281V204.49h140.779V275.524z"/>
	</g>
</g>
<g>
	<g>
		<path d="M50.846,44.986v110.418H231.01V44.986H50.846z M211.317,135.712H70.538V64.678h140.779V135.712z"/>
	</g>
</g>
<g>
	<g>
		<path d="M50.846,184.798v110.418H231.01V184.798H50.846z M211.317,275.524H70.538V204.49h140.779V275.524z"/>
	</g>
</g>
<g>
	<g>
		<path d="M0,0v492.308h189.654V352.952h113.01v139.356h189.644V0H0z M472.615,472.615h-150.26V333.26H169.962v139.356H19.692
			V19.692h452.923V472.615z"/>
	</g>
</g>
<g>
</g>
<g>
</g>
<g>
</g>
<g>
</g>
<g>
</g>
<g>
</g>
<g>
</g>
<g>
</g>
<g>
</g>
<g>
</g>
<g>
</g>
<g>
</g>
<g>
</g>
<g>
</g>
<g>
</g>
</svg>
